# xmcd
#
# Track frame offsets: 
#        150
#        16078
#        48247
#        68213
#        97966
#        118531
#        147284
#        171386
#        248110
#        269124
#
# Disc length: 3879 seconds
#
# Revision: 0
# Processed by: cddbd v1.5.2PL0 Copyright (c) Steve Scherf et al.
# Submitted via: ExactAudioCopy v0.99pb5
#
DISCID=8a0f250a
DTITLE=John Lee Hooker - Don't Lose The Blues
DYEAR=1991
DGENRE=Blues
TTITLE0=01 So Lonley
TTITLE1=02 Mable
TTITLE2=03 I'm In The Mood
TTITLE3=04 Crawlin' King Snake
TTITLE4=05 Baby Lee
TTITLE5=06 Serve Me Right To Suffer
TTITLE6=07 Boom Boom
TTITLE7=08 Doin' The Boogie
TTITLE8=09 The Healer
TTITLE9=10 Boogie Improvisation
EXTD=
EXTT0=
EXTT1=
EXTT2=
EXTT3=
EXTT4=
EXTT5=
EXTT6=
EXTT7=
EXTT8=
EXTT9=
PLAYORDER=
